<svg
  xmlns="http://www.w3.org/2000/svg"
  xmlns:xlink="http://www.w3.org/1999/xlink"
  width="250"
  height="27.237"
  viewBox="0 0 250 27.237"
>
  <defs>
    <clipPath id="clip-path">
      <rect
        id="Rectangle_1436"
        data-name="Rectangle 1436"
        width="250"
        height="27.237"
        transform="translate(162 64.656)"
        fill="#fff"
        stroke="#707070"
        stroke-width="1"
      />
    </clipPath>
  </defs>
  <g
    id="Mask_Group_324"
    data-name="Mask Group 324"
    transform="translate(-162 -64.656)"
    clip-path="url(#clip-path)"
  >
    <g id="bm-logo" transform="translate(162 65.372)">
      <path
        id="Path_4560"
        data-name="Path 4560"
        d="M28.395,24.147c0,4.457-3.686,7.071-10.623,7.071H3.83V5.414h13.2c6.769,0,10.087,2.782,10.087,6.736a6.057,6.057,0,0,1-3.452,5.6,6.537,6.537,0,0,1,4.725,6.4M10.7,10.675v4.96h5.027c2.446,0,3.686-.838,3.686-2.513,0-1.609-1.24-2.48-3.686-2.48H10.7Zm9.953,12.634c0-1.776-1.34-2.614-3.82-2.614H10.7v5.228h6.133c2.513,0,3.82-.838,3.82-2.614"
        transform="translate(-3.83 -5.414)"
        fill="#fff"
      />
      <path
        id="Path_4561"
        data-name="Path 4561"
        d="M56.681,13.79v6.3a14.18,14.18,0,0,0-1.575-.1c-2.849,0-4.792,1.441-4.792,4.926V34.1h-7V14.125h6.669V16.5c1.441-1.81,3.753-2.714,6.7-2.714"
        transform="translate(-17.405 -8.294)"
        fill="#fff"
      />
      <path
        id="Path_4562"
        data-name="Path 4562"
        d="M121.076,22.653V34.08h-7V23.792c0-2.882-1.24-4.088-3.284-4.088-2.245,0-3.988,1.408-3.988,4.725V34.08h-7V14.074h6.669v2.178a8.611,8.611,0,0,1,6.334-2.513c4.725.034,8.277,2.714,8.277,8.914"
        transform="translate(-36.826 -8.276)"
        fill="#fff"
      />
      <path
        id="Path_4563"
        data-name="Path 4563"
        d="M156.758,5.414v25.8h-6.669V29.241a7.23,7.23,0,0,1-5.865,2.312c-5.462,0-9.853-3.988-9.853-10.355,0-6.334,4.39-10.288,9.853-10.288a7.3,7.3,0,0,1,5.529,2.078V5.414Zm-6.9,15.784c0-3.016-1.81-4.725-4.155-4.725-2.379,0-4.189,1.709-4.189,4.725,0,3.05,1.81,4.792,4.189,4.792s4.155-1.743,4.155-4.792"
        transform="translate(-48.715 -5.414)"
        fill="#fff"
      />
      <path
        id="Path_4564"
        data-name="Path 4564"
        d="M85.716,14.074V34.047H79.047V32.07a7.23,7.23,0,0,1-5.865,2.312c-5.462,0-9.853-3.988-9.853-10.355,0-6.334,4.39-10.288,9.853-10.288a7.3,7.3,0,0,1,5.529,2.078V14.074h7Z"
        transform="translate(-24.288 -8.276)"
        fill="#fff"
      />
      <path
        id="Path_4565"
        data-name="Path 4565"
        d="M267.125,14.074V34.047h-6.669V32.07a7.23,7.23,0,0,1-5.865,2.312c-5.462,0-9.853-3.988-9.853-10.355,0-6.334,4.39-10.288,9.853-10.288a7.3,7.3,0,0,1,5.529,2.078V14.074h7Zm-6.9,9.987c0-3.016-1.81-4.725-4.156-4.725-2.379,0-4.189,1.709-4.189,4.725,0,3.05,1.81,4.792,4.189,4.792,2.346,0,4.156-1.743,4.156-4.792"
        transform="translate(-86.662 -8.276)"
        fill="#fff"
      />
      <path
        id="Path_4566"
        data-name="Path 4566"
        d="M170.224,32.338l2.111-4.792a14.022,14.022,0,0,0,6.97,1.843c2.346,0,3.15-.5,3.15-1.374,0-2.681-11.8.369-11.8-7.641,0-3.753,3.452-6.635,9.718-6.635a17.388,17.388,0,0,1,7.875,1.709l-2.111,4.759a11.7,11.7,0,0,0-5.764-1.475c-2.346,0-3.217.67-3.217,1.408,0,2.782,11.763-.235,11.763,7.708,0,3.686-3.385,6.568-9.886,6.568a18.392,18.392,0,0,1-8.814-2.078"
        transform="translate(-61.042 -8.276)"
        fill="#fff"
      />
      <path
        id="Path_4567"
        data-name="Path 4567"
        d="M221.961,31.218l-.067-13.673-5.8,13.673h-2.815l-5.764-13.3v13.3h-6.8V5.414h7.507l6.568,14.879,6.367-14.879h7.507l.067,25.8Z"
        transform="translate(-71.525 -5.414)"
        fill="#fff"
      />
      <path
        id="Path_4568"
        data-name="Path 4568"
        d="M294.372,13.79v6.3a14.18,14.18,0,0,0-1.575-.1c-2.849,0-4.792,1.441-4.792,4.926V34.1h-7V14.125h6.669V16.5c1.441-1.81,3.753-2.714,6.7-2.714"
        transform="translate(-99.13 -8.294)"
        fill="#fff"
      />
      <path
        id="Path_4569"
        data-name="Path 4569"
        d="M314.306,26.324l1.81,4.993a13.38,13.38,0,0,1-4.993.938c-5.127,0-8.11-2.513-8.11-7.641V7.457h7v5.194h4.558v5.228h-4.558v6.635a2.054,2.054,0,0,0,2.111,2.279,5.354,5.354,0,0,0,2.178-.469"
        transform="translate(-106.699 -6.116)"
        fill="#fff"
      />
      <path
        id="Path_4570"
        data-name="Path 4570"
        d="M326.71,13.808v-6.3h3.217v6.2c0,1.944.8,2.714,2.145,2.714s2.145-.771,2.145-2.714v-6.2h3.15v6.3c0,3.385-1.977,5.295-5.328,5.295-3.351-.034-5.328-1.91-5.328-5.295"
        transform="translate(-114.847 -6.134)"
        fill="#fff"
      />
      <path
        id="Path_4571"
        data-name="Path 4571"
        d="M344.381,17.671l1.039-2.379a7.143,7.143,0,0,0,3.753,1.106c1.34,0,1.843-.369,1.843-.938,0-1.81-6.468-.5-6.468-4.725,0-2.044,1.642-3.686,5.027-3.686A8.254,8.254,0,0,1,353.7,8.053l-1.005,2.379a6.787,6.787,0,0,0-3.15-.871c-1.34,0-1.843.469-1.843,1.039,0,1.743,6.434.436,6.434,4.625,0,1.977-1.642,3.653-5.027,3.653a8.573,8.573,0,0,1-4.725-1.206"
        transform="translate(-120.923 -5.976)"
        fill="#fff"
      />
      <path
        id="Path_4572"
        data-name="Path 4572"
        d="M367.476,16.656h-4.792l-.9,2.212h-3.251l5.027-11.361h3.15l5.027,11.361h-3.351Zm-.938-2.379-1.475-3.653-1.475,3.653Z"
        transform="translate(-125.787 -6.134)"
        fill="#fff"
      />
      <path
        id="Path_4573"
        data-name="Path 4573"
        d="M76.03,16.292l2.011,6.166h6.535L79.28,26.312l2.011,6.2L76.03,28.658l-5.261,3.854,2.011-6.2-5.261-3.854h6.5Z"
        transform="translate(-25.728 -9.154)"
        fill="#005cb9"
      />
      <path
        id="Path_4574"
        data-name="Path 4574"
        d="M382.056,9.747A2.647,2.647,0,1,1,379.408,7.1a2.632,2.632,0,0,1,2.647,2.647m-.5,0a2.128,2.128,0,1,0-4.256,0,2.128,2.128,0,1,0,4.256,0m-1.374.469.637.972h-.6l-.57-.871h-.67v.871h-.6V8.339h1.173c.737,0,1.206.4,1.206.972a.973.973,0,0,1-.57.9m-.67-.369c.4,0,.637-.2.637-.5s-.235-.5-.637-.5h-.536V9.847Z"
        transform="translate(-132.056 -5.993)"
        fill="#fff"
      />
      <path
        id="Path_4575"
        data-name="Path 4575"
        d="M327.068,31.46l1.743,4.993a64.454,64.454,0,0,1,32.038-4.692V29.651c-7.775-3.921-25.8-1.374-33.78,1.81"
        transform="translate(-114.97 -13.062)"
        fill="#fff"
      />
    </g>
  </g>
</svg>
